<?xml version="1.0" encoding="UTF-8"?>
<svg id="Layer_2" data-name="Layer 2" xmlns="http://www.w3.org/2000/svg" viewBox="0 0 1327 2265.7">
  <defs>
    <style>
      .cls-1 {
        fill: #FFC100;
      }
    </style>
  </defs>
  <g id="Layer_12" data-name="Layer 12">
    <g>
      <path class="cls-1" d="M1108.3,1340.4l-889.4,889.4c-53.2,53.2-120.2,44.6-173.4-8.6-53.2-53.2-63.5-121.9-10.3-175.2l889.4-889.4c53.2-53.2,120.2-44.6,173.4,8.6,53.2,53.2,63.5,121.9,10.3,175.2Z"/>
      <path class="cls-1" d="M1108.6,870.7l-706.3,706.3c-53.2,53.2-120.2,44.6-173.4-8.6-53.2-53.2-63.5-121.9-10.3-175.2l706.3-706.3c53.2-53.2,120.2-44.6,173.4,8.6,53.2,53.2,63.5,121.9,10.3,175.2Z"/>
      <path class="cls-1" d="M1291.8,219.6l-889.4,889.4c-53.2,53.2-120.2,44.6-173.4-8.6-53.2-53.2-63.5-121.9-10.3-175.2L1108.1,35.9c53.2-53.2,120.2-44.6,173.4,8.6,53.2,53.2,63.5,121.9,10.3,175.2Z"/>
    </g>
  </g>
</svg>