<?xml version="1.0" encoding="UTF-8"?>
<svg id="Layer_2" data-name="Layer 2" xmlns="http://www.w3.org/2000/svg" viewBox="0 0 2058.8 792.7">
  <defs>
    <style>
      .cls-1 {
        fill: #020413;
      }

      .cls-2 {
        fill: #FFC100;
      }
    </style>
  </defs>
  <g id="Layer_5" data-name="Layer 5">
    <g>
      <path class="cls-2" d="M0,496.2v-178.9c0-86,46-139.8,114.6-139.8h24.3c68.6,0,114.6,54.7,114.6,140.7v18.2c0,26.9-19.1,41.7-46,41.7s-46.9-14.8-46.9-41.7v-39.9c0-19.1-13.9-33-33.9-33s-33.9,13.9-33.9,33v204.1c0,21.7,13.9,33,33.9,33s33.9-11.3,33.9-33v-33c0-26.9,20-41.7,46.9-41.7s46,14.8,46,41.7v28.7c0,86-46,122.4-114.6,122.4h-24.3c-68.6,0-114.6-36.5-114.6-122.4Z"/>
      <g>
        <path class="cls-1" d="M459.2,546.2v-281.4c0-14.8-8.7-26.9-28.7-26.9s-33,14.8-33,51.2v257.9c0,26.9-19.1,41.7-46,41.7s-46.9-14.8-46.9-41.7V46.9c0-29.5,18.2-46.9,51.2-46.9s41.7,13.9,41.7,33v185c7.8-31.3,34.7-69.5,75.5-69.5s79,31.3,79,71.2v323c0,31.3-22.6,46-46.9,46s-46-14.8-46-42.6Z"/>
        <path class="cls-1" d="M760.5,601.7v-32.1c-5.2,32.1-32.1,79-77.3,79s-79-31.3-79-71.2v-51.2c0-117.2,156.3-115.5,156.3-198.9v-.9c0-15.6-13.9-33-33.9-33s-33.9,13.9-33.9,33v27.8c0,27.8-17.4,42.6-44.3,42.6s-44.3-14.8-44.3-46v-36.5c0-55.6,39.9-106.8,117.2-106.8h14.8c68.6,0,117.2,51.2,117.2,106.8v301.3c0,19.1-14.8,33-41.7,33s-51.2-17.4-51.2-46.9ZM725.8,559.1c23.4,0,34.7-14.8,34.7-51.2v-67.7c-37.3,27.8-63.4,48.6-63.4,78.2v13.9c0,14.8,8.7,26.9,28.7,26.9Z"/>
        <path class="cls-1" d="M905.6,547.1V195.4c0-29.5,18.2-46.9,51.2-46.9s41.7,13.9,41.7,33v36.5c7.8-31.3,34.7-69.5,75.5-69.5s79,31.3,79,88.6v60.8c0,31.3-22.6,46-46.9,46s-46-14.8-46-42.6v-36.5c0-14.8-8.7-26.9-28.7-26.9s-33,14.8-33,51.2v257.9c0,26.9-19.1,41.7-46,41.7s-46.9-14.8-46.9-41.7Z"/>
        <path class="cls-1" d="M1199.9,711.1c0-25.2,18.2-42.6,43.4-42.6,45.2,0,41.7,46.9,72.9,46.9h6.9c27.8,0,37.3-19.1,37.3-49.5v-86.8c-7.8,31.3-34.7,69.5-75.6,69.5s-79-31.3-79-71.2v-297.9c0-39.9,29.5-71.2,79-71.2s67.7,38.2,75.6,69.5v-23.4c0-29.5,18.2-46.9,51.2-46.9s41.7,13.9,41.7,33v411.6c0,90.3-45.2,140.7-130.3,140.7h-12.2c-64.3,0-111.2-33.9-111.2-81.6ZM1327.6,559.1c23.4,0,33-14.8,33-51.2v-158.9c0-36.5-9.6-51.2-33-51.2s-28.7,12.2-28.7,26.9v207.5c0,14.8,8.7,26.9,28.7,26.9Z"/>
        <path class="cls-1" d="M1505.6,466.3v-187.6c0-86,50.4-131.1,119-131.1h20c68.6,0,114.6,46,114.6,132v65.1c0,9.5-7.8,17.4-17.4,17.4h-143.3v108.6c0,21.7,13.9,33,33.9,33s33.9-11.3,33.9-33v-33c0-26.9,20-41.7,46.9-41.7s46,14.8,46,41.7v28.7c0,86-46,122.4-114.6,122.4h-20c-68.6,0-119-36.5-119-122.4ZM1661.9,310c2.6,0,4.3-1.7,4.3-4.3v-39.1c0-19.1-13.9-33-33.9-33s-33.9,13.9-33.9,33v43.4h63.4Z"/>
        <path class="cls-1" d="M1811.3,548.3V250.5c0-39.9,29.5-71.2,79-71.2s67.7,38.2,75.5,69.5V72.5c0-26.9,20-41.7,46.9-41.7s46,14.8,46,41.7v514.1c0,19.1-14.8,33-41.7,33s-51.2-17.4-51.2-46.9v-22.6c-7.8,31.3-34.7,69.5-75.5,69.5s-79-31.3-79-71.2ZM1932.9,530.1c23.4,0,33-14.8,33-51.2v-158.9c0-36.5-9.5-51.2-33-51.2s-28.7,12.2-28.7,26.9v207.5c0,14.8,8.7,26.9,28.7,26.9Z"/>
      </g>
    </g>
  </g>
</svg>