<?xml version="1.0" encoding="UTF-8"?>
<svg id="Layer_2" data-name="Layer 2" xmlns="http://www.w3.org/2000/svg" viewBox="0 0 2371.5 918.5">
  <defs>
    <style>
      .cls-1 {
        fill: #fff;
      }

      .cls-2 {
        fill: #FFC100;
      }
    </style>
  </defs>
  <g id="Layer_19" data-name="Layer 19">
    <g>
      <path class="cls-2" d="M0,581.2v-209.5c0-100.7,53.9-163.8,134.3-163.8h28.5c80.4,0,134.3,64.1,134.3,164.8v21.4c0,31.5-22.4,48.8-53.9,48.8s-54.9-17.3-54.9-48.8v-46.8c0-22.4-16.3-38.6-39.7-38.6s-39.7,16.3-39.7,38.6v239c0,25.4,16.3,38.6,39.7,38.6s39.7-13.2,39.7-38.6v-38.7c0-31.5,23.4-48.8,54.9-48.8s53.9,17.3,53.9,48.8v33.6c0,100.7-53.9,143.4-134.3,143.4h-28.5C53.9,724.7,0,681.9,0,581.2Z"/>
      <g>
        <path class="cls-1" d="M547.9,639.8v-329.6c0-17.3-10.2-31.5-33.6-31.5s-38.6,17.3-38.6,60v302.1c0,31.5-22.4,48.8-53.9,48.8s-54.9-17.3-54.9-48.8V54.9c0-34.6,21.4-54.9,60-54.9s48.8,16.3,48.8,38.6v216.7c9.2-36.6,40.7-81.4,88.5-81.4s92.6,36.6,92.6,83.4v378.4c0,36.6-26.4,53.9-54.9,53.9s-53.9-17.3-53.9-49.8Z"/>
        <path class="cls-1" d="M890.8,694.7v-37.6c-6.1,37.6-37.6,92.6-90.5,92.6s-92.6-36.6-92.6-83.4v-60c0-137.3,183.1-135.3,183.1-232.9v-1c0-18.3-16.3-38.6-39.7-38.6s-39.7,16.3-39.7,38.6v32.5c0,32.5-20.3,49.8-51.9,49.8s-51.9-17.3-51.9-53.9v-42.7c0-65.1,46.8-125.1,137.3-125.1h17.3c80.4,0,137.3,60,137.3,125.1v353c0,22.4-17.3,38.6-48.8,38.6s-60-20.3-60-54.9ZM850.1,644.9c27.5,0,40.7-17.3,40.7-60v-79.3c-43.7,32.5-74.3,57-74.3,91.5v16.3c0,17.3,10.2,31.5,33.6,31.5Z"/>
        <path class="cls-1" d="M1050.7,640.3V228.4c0-34.6,21.4-54.9,60-54.9s48.8,16.3,48.8,38.7v42.7c9.2-36.6,40.7-81.4,88.5-81.4s92.6,36.6,92.6,103.8v71.2c0,36.6-26.4,53.9-54.9,53.9s-53.9-17.3-53.9-49.8v-42.7c0-17.3-10.2-31.5-33.6-31.5s-38.6,17.3-38.6,60v302.1c0,31.5-22.4,48.8-53.9,48.8s-54.9-17.3-54.9-48.8Z"/>
        <path class="cls-1" d="M1385.5,822.9c0-29.5,21.4-49.8,50.9-49.8,52.9,0,48.8,54.9,85.4,54.9h8.1c32.5,0,43.7-22.4,43.7-58v-101.7c-9.2,36.6-40.7,81.4-88.5,81.4s-92.6-36.6-92.6-83.4v-348.9c0-46.8,34.6-83.4,92.6-83.4s79.3,44.8,88.5,81.4v-27.5c0-34.6,21.4-54.9,60-54.9s48.8,16.3,48.8,38.6v482.1c0,105.8-52.9,164.8-152.6,164.8h-14.2c-75.3,0-130.2-39.7-130.2-95.6ZM1535.1,644.9c27.5,0,38.7-17.3,38.7-60v-186.1c0-42.7-11.2-60-38.7-60s-33.6,14.2-33.6,31.5v243.1c0,17.3,10.2,31.5,33.6,31.5Z"/>
        <path class="cls-1" d="M1733.6,547.2v-219.7c0-100.7,59-153.6,139.3-153.6h23.4c80.4,0,134.3,53.9,134.3,154.6v76.3c0,11.2-9.2,20.3-20.3,20.3h-167.8v127.2c0,25.4,16.3,38.6,39.7,38.6s39.7-13.2,39.7-38.6v-38.7c0-31.5,23.4-48.8,54.9-48.8s53.9,17.3,53.9,48.8v33.6c0,100.7-53.9,143.4-134.3,143.4h-23.4c-80.4,0-139.3-42.7-139.3-143.4ZM1916.7,364.1c3,0,5.1-2,5.1-5.1v-45.8c0-22.4-16.3-38.6-39.7-38.6s-39.7,16.3-39.7,38.6v50.9h74.3Z"/>
        <path class="cls-1" d="M2081.6,641.2v-348.9c0-46.8,34.6-83.4,92.6-83.4s79.3,44.8,88.5,81.4V83.8c0-31.5,23.4-48.8,54.9-48.8s53.9,17.3,53.9,48.8v602.2c0,22.4-17.3,38.6-48.8,38.6s-60-20.3-60-54.9v-26.4c-9.2,36.6-40.7,81.4-88.5,81.4s-92.6-36.6-92.6-83.4ZM2224,619.9c27.5,0,38.6-17.3,38.6-60v-186.1c0-42.7-11.2-60-38.6-60s-33.6,14.2-33.6,31.5v243.1c0,17.3,10.2,31.5,33.6,31.5Z"/>
      </g>
    </g>
  </g>
</svg>