<svg xmlns="http://www.w3.org/2000/svg" viewBox="0 0 512 512">
  <rect width="512" height="512" rx="104" fill="#020413"/>
  <path transform="translate(169.75 106) scale(0.6802)" fill="#FFC100" d="M0,318.7v-178.9C0,53.8,46,0,114.6,0h24.3c68.6,0,114.6,54.7,114.6,140.7v18.2c0,26.9-19.1,41.7-46,41.7s-46.9-14.8-46.9-41.7v-39.9c0-19.1-13.9-33-33.9-33s-33.9,13.9-33.9,33v204.1c0,21.7,13.9,33,33.9,33s33.9-11.3,33.9-33v-33c0-26.9,20-41.7,46.9-41.7s46,14.8,46,41.7v28.7c0,86-46,122.4-114.6,122.4h-24.3C46,441.1,0,404.7,0,318.7Z"/>
</svg>
