<svg width="1680" height="1200" viewBox="0 0 1680 1200" xmlns="http://www.w3.org/2000/svg">
<defs>
  <linearGradient id="bg" x1="0" y1="0" x2="0" y2="1"><stop offset="0" stop-color="#ECE9E2"/><stop offset="1" stop-color="#E2DED5"/></linearGradient>
  <linearGradient id="teal" x1="0" y1="0" x2="1" y2="1"><stop offset="0" stop-color="#13B9AA"/><stop offset="1" stop-color="#0C6E6A"/></linearGradient>
  <filter id="winShadow" x="-20%" y="-20%" width="140%" height="140%"><feDropShadow dx="0" dy="24" stdDeviation="34" flood-color="#3a2f23" flood-opacity="0.28"/></filter>
  <filter id="soft" x="-40%" y="-40%" width="180%" height="180%"><feDropShadow dx="0" dy="10" stdDeviation="16" flood-color="#0c4a47" flood-opacity="0.22"/></filter>
  <clipPath id="win"><rect x="40" y="44" width="1600" height="1112" rx="18"/></clipPath>
  <symbol id="star" viewBox="0 0 20 20"><path d="M10 1 L12.6 7.0 L19 7.3 L13.9 11.3 L15.8 17.6 L10 14 L4.2 17.6 L6.1 11.3 L1 7.3 L7.4 7.0 Z"/></symbol>
</defs>
<rect width="1680" height="1200" fill="url(#bg)"/>
<rect x="40" y="44" width="1600" height="1112" rx="18" fill="#ECF7F4" filter="url(#winShadow)"/>
<g clip-path="url(#win)">
  <!-- chrome -->
  <rect x="40" y="44" width="1600" height="54" fill="#E2EEEC"/>
  <circle cx="74" cy="71" r="7" fill="#E2685C"/><circle cx="98" cy="71" r="7" fill="#E9B14C"/><circle cx="122" cy="71" r="7" fill="#5FB85C"/>
  <rect x="300" y="56" width="600" height="30" rx="15" fill="#FFFFFF" stroke="#cfe1de"/>
  <path d="M590 66 h-3 v-3 a3 3 0 0 1 6 0 v3 h-3 z M586 66 h12 v9 h-12 z" fill="none" stroke="#8fb0ac" stroke-width="1.4"/>
  <text x="605" y="76" font-family="Manrope400" font-size="14" fill="#6a8a86">brightwaterdental.co.uk</text>

  <!-- NAV -->
  <rect x="40" y="98" width="1600" height="90" fill="#FFFFFF"/>
  <path d="M104 132 c-14 -10 -34 0 -30 18 c4 18 18 30 26 30 c4 0 5 -8 8 -8 c3 0 4 8 8 8 c8 0 22 -12 26 -30 c4 -18 -16 -28 -30 -18 c-3 2 -5 2 -8 0 z" fill="#13B9AA"/>
  <text x="150" y="138" font-family="Poppins600" font-size="24" fill="#16302E">Brightwater</text>
  <text x="152" y="158" font-family="Manrope600" font-size="10" fill="#13B9AA" letter-spacing="5">DENTAL</text>
  <text x="1050" y="148" text-anchor="middle" font-family="Manrope600" font-size="15" fill="#33514E">Treatments</text>
  <text x="1158" y="148" text-anchor="middle" font-family="Manrope600" font-size="15" fill="#33514E">About</text>
  <text x="1248" y="148" text-anchor="middle" font-family="Manrope600" font-size="15" fill="#33514E">Patients</text>
  <text x="1340" y="148" text-anchor="middle" font-family="Manrope600" font-size="15" fill="#33514E">Contact</text>
  <rect x="1408" y="120" width="180" height="46" rx="23" fill="#FF7A66"/>
  <text x="1498" y="148" text-anchor="middle" font-family="Manrope700" font-size="15" fill="#FFFFFF">Book online</text>

  <!-- HERO right rounded panel -->
  <rect x="980" y="216" width="616" height="500" rx="32" fill="url(#teal)"/>
  <circle cx="1290" cy="430" r="150" fill="#FFFFFF" opacity="0.10"/>
  <circle cx="1290" cy="430" r="100" fill="#FFFFFF" opacity="0.10"/>
  <!-- big friendly tooth -->
  <path d="M1290 360 c-44 -34 -104 0 -92 56 c10 50 40 96 64 96 c12 0 14 -26 28 -26 c14 0 16 26 28 26 c24 0 54 -46 64 -96 c12 -56 -48 -90 -92 -56 c-10 8 -22 8 -32 0 z" fill="#FFFFFF"/>
  <!-- floating appointment chip -->
  <rect x="900" y="600" width="300" height="96" rx="18" fill="#FFFFFF" filter="url(#soft)"/>
  <circle cx="942" cy="648" r="22" fill="#E6F7F4"/><path d="M934 648 l6 6 l12 -13" stroke="#13B9AA" stroke-width="3" fill="none" stroke-linecap="round" stroke-linejoin="round"/>
  <text x="978" y="640" font-family="Manrope700" font-size="14" fill="#16302E">Next available</text>
  <text x="978" y="664" font-family="Manrope500" font-size="13" fill="#5a7975">Tomorrow · 9:00 AM</text>
  <!-- offer chip top right of panel -->
  <rect x="1392" y="250" width="172" height="56" rx="28" fill="#FF7A66"/>
  <text x="1478" y="277" text-anchor="middle" font-family="Manrope700" font-size="14" fill="#FFFFFF">New patient £49</text>
  <text x="1478" y="294" text-anchor="middle" font-family="Manrope500" font-size="10.5" fill="#FFE7E1">exam &amp; X-rays</text>

  <!-- HERO left -->
  <text x="92" y="276" font-family="Manrope700" font-size="13" fill="#FF7A66" letter-spacing="3">EXETER · NHS &amp; PRIVATE CARE</text>
  <text x="90" y="356" font-family="Poppins700" font-size="58" fill="#16302E">A dentist you&#8217;ll</text>
  <text x="90" y="424" font-family="Poppins700" font-size="58" fill="#16302E">actually look</text>
  <text x="90" y="492" font-family="Poppins700" font-size="58" fill="#13B9AA">forward to.</text>
  <text x="92" y="548" font-family="Manrope400" font-size="18" fill="#4f6f6b">Gentle, modern dentistry for all the family — from routine</text>
  <text x="92" y="576" font-family="Manrope400" font-size="18" fill="#4f6f6b">check-ups to invisible aligners and same-day emergencies.</text>
  <rect x="92" y="616" width="200" height="56" rx="28" fill="#FF7A66"/>
  <text x="192" y="651" text-anchor="middle" font-family="Manrope700" font-size="16" fill="#FFFFFF">Book online</text>
  <rect x="308" y="616" width="200" height="56" rx="28" fill="none" stroke="#13B9AA" stroke-width="1.6"/>
  <text x="408" y="651" text-anchor="middle" font-family="Manrope700" font-size="16" fill="#0C6E6A">Our treatments &#8594;</text>
  <g fill="#FFB020"><use href="#star" x="92" y="704" width="16" height="16"/><use href="#star" x="112" y="704" width="16" height="16"/><use href="#star" x="132" y="704" width="16" height="16"/><use href="#star" x="152" y="704" width="16" height="16"/><use href="#star" x="172" y="704" width="16" height="16"/></g>
  <text x="200" y="717" font-family="Manrope600" font-size="14" fill="#4f6f6b">4.9 from 400+ Google reviews</text>

  <!-- LOWER: treatments -->
  <rect x="40" y="760" width="1600" height="396" fill="#FFFFFF"/>
  <text x="92" y="838" font-family="Poppins600" font-size="32" fill="#16302E">Treatments we love to do</text>
  <text x="1588" y="838" text-anchor="end" font-family="Manrope600" font-size="15" fill="#13B9AA">See all treatments &#8594;</text>
  <!-- cards -->
  <g>
    <rect x="92" y="876" width="362" height="232" rx="22" fill="#F4FBF9" stroke="#13B9AA" stroke-opacity="0.14"/>
    <circle cx="138" cy="924" r="26" fill="#E6F7F4"/><path d="M138 910 c-12 -8 -26 2 -22 14 c3 12 12 22 16 22 c3 0 3 -6 6 -6 c3 0 3 6 6 6 c4 0 13 -10 16 -22 c4 -12 -10 -22 -22 -14 z" fill="#13B9AA"/>
    <text x="112" y="984" font-family="Poppins600" font-size="20" fill="#16302E">Check-ups &amp; Hygiene</text>
    <text x="112" y="1014" font-family="Manrope400" font-size="13.5" fill="#5a7975">Keep your smile healthy with</text>
    <text x="112" y="1034" font-family="Manrope400" font-size="13.5" fill="#5a7975">routine exams and cleans.</text>
    <text x="112" y="1074" font-family="Manrope700" font-size="14" fill="#FF7A66">from £39</text>
  </g>
  <g>
    <rect x="478" y="876" width="362" height="232" rx="22" fill="#F4FBF9" stroke="#13B9AA" stroke-opacity="0.14"/>
    <circle cx="524" cy="924" r="26" fill="#E6F7F4"/><rect x="512" y="914" width="24" height="20" rx="6" fill="none" stroke="#13B9AA" stroke-width="2.4"/>
    <text x="498" y="984" font-family="Poppins600" font-size="20" fill="#16302E">Invisible Aligners</text>
    <text x="498" y="1014" font-family="Manrope400" font-size="13.5" fill="#5a7975">Straighten your teeth discreetly</text>
    <text x="498" y="1034" font-family="Manrope400" font-size="13.5" fill="#5a7975">with clear aligners.</text>
    <text x="498" y="1074" font-family="Manrope700" font-size="14" fill="#FF7A66">from £1,495</text>
  </g>
  <g>
    <rect x="864" y="876" width="362" height="232" rx="22" fill="#F4FBF9" stroke="#13B9AA" stroke-opacity="0.14"/>
    <circle cx="910" cy="924" r="26" fill="#E6F7F4"/><path d="M900 932 l8 -20 l4 0 l8 20 z" fill="#13B9AA"/><circle cx="910" cy="922" r="3" fill="#FFFFFF"/>
    <text x="884" y="984" font-family="Poppins600" font-size="20" fill="#16302E">Teeth Whitening</text>
    <text x="884" y="1014" font-family="Manrope400" font-size="13.5" fill="#5a7975">A brighter smile in a single</text>
    <text x="884" y="1034" font-family="Manrope400" font-size="13.5" fill="#5a7975">comfortable visit.</text>
    <text x="884" y="1074" font-family="Manrope700" font-size="14" fill="#FF7A66">from £295</text>
  </g>
  <g>
    <rect x="1250" y="876" width="362" height="232" rx="22" fill="#0C6E6A"/>
    <text x="1278" y="932" font-family="Poppins600" font-size="20" fill="#FFFFFF">Nervous patient?</text>
    <text x="1278" y="966" font-family="Manrope400" font-size="13.5" fill="#bfe7e2">We&#8217;re known for our calm,</text>
    <text x="1278" y="986" font-family="Manrope400" font-size="13.5" fill="#bfe7e2">judgement-free care — tell us</text>
    <text x="1278" y="1006" font-family="Manrope400" font-size="13.5" fill="#bfe7e2">and we&#8217;ll take it slow.</text>
    <rect x="1278" y="1036" width="150" height="44" rx="22" fill="#FF7A66"/>
    <text x="1353" y="1063" text-anchor="middle" font-family="Manrope700" font-size="14" fill="#FFFFFF">Talk to us &#8594;</text>
  </g>
</g>
</svg>
