<svg width="1680" height="1200" viewBox="0 0 1680 1200" xmlns="http://www.w3.org/2000/svg">
<defs>
  <linearGradient id="bg" x1="0" y1="0" x2="0" y2="1"><stop offset="0" stop-color="#ECE9E2"/><stop offset="1" stop-color="#E2DED5"/></linearGradient>
  <linearGradient id="sky" x1="0" y1="0" x2="0" y2="1"><stop offset="0" stop-color="#9FBFD0"/><stop offset="0.55" stop-color="#CBD7CE"/><stop offset="1" stop-color="#E9E1CF"/></linearGradient>
  <linearGradient id="sea" x1="0" y1="0" x2="0" y2="1"><stop offset="0" stop-color="#5C879B"/><stop offset="1" stop-color="#3E6678"/></linearGradient>
  <linearGradient id="ovl" x1="0" y1="0" x2="1" y2="0"><stop offset="0" stop-color="#1F3D2F" stop-opacity="0.55"/><stop offset="0.6" stop-color="#1F3D2F" stop-opacity="0"/></linearGradient>
  <linearGradient id="p1" x1="0" y1="0" x2="1" y2="1"><stop offset="0" stop-color="#86A8B8"/><stop offset="1" stop-color="#4E7488"/></linearGradient>
  <linearGradient id="p2" x1="0" y1="0" x2="1" y2="1"><stop offset="0" stop-color="#C8B89A"/><stop offset="1" stop-color="#9A7E55"/></linearGradient>
  <linearGradient id="p3" x1="0" y1="0" x2="1" y2="1"><stop offset="0" stop-color="#8FA890"/><stop offset="1" stop-color="#5C7A5F"/></linearGradient>
  <filter id="winShadow" x="-20%" y="-20%" width="140%" height="140%"><feDropShadow dx="0" dy="24" stdDeviation="34" flood-color="#3a2f23" flood-opacity="0.28"/></filter>
  <filter id="soft" x="-40%" y="-40%" width="180%" height="180%"><feDropShadow dx="0" dy="12" stdDeviation="20" flood-color="#1f3d2f" flood-opacity="0.22"/></filter>
  <clipPath id="win"><rect x="40" y="44" width="1600" height="1112" rx="18"/></clipPath>
  <clipPath id="heroClip"><rect x="40" y="98" width="1600" height="566"/></clipPath>
  <clipPath id="c1"><rect x="92" y="800" width="490" height="180" rx="16"/></clipPath>
  <clipPath id="c2"><rect x="606" y="800" width="490" height="180" rx="16"/></clipPath>
  <clipPath id="c3"><rect x="1120" y="800" width="490" height="180" rx="16"/></clipPath>
</defs>
<rect width="1680" height="1200" fill="url(#bg)"/>
<rect x="40" y="44" width="1600" height="1112" rx="18" fill="#F4F1E9" filter="url(#winShadow)"/>
<g clip-path="url(#win)">
  <rect x="40" y="44" width="1600" height="54" fill="#ECE6D8"/>
  <circle cx="74" cy="71" r="7" fill="#E2685C"/><circle cx="98" cy="71" r="7" fill="#E9B14C"/><circle cx="122" cy="71" r="7" fill="#5FB85C"/>
  <rect x="300" y="56" width="600" height="30" rx="15" fill="#F4F1E9" stroke="#d8d0bd"/>
  <text x="605" y="76" font-family="Manrope400" font-size="14" fill="#8a8266">coastandcounty.co.uk</text>

  <!-- HERO coastal scene -->
  <g clip-path="url(#heroClip)">
    <rect x="40" y="98" width="1600" height="566" fill="url(#sky)"/>
    <circle cx="1280" cy="240" r="90" fill="#F4ECD8" opacity="0.7"/>
    <!-- distant headland -->
    <path d="M40 470 C300 410 520 440 760 470 C980 498 1200 470 1640 440 L1640 664 L40 664 Z" fill="#7C9A86" opacity="0.7"/>
    <!-- sea -->
    <rect x="40" y="520" width="1600" height="144" fill="url(#sea)"/>
    <g stroke="#FFFFFF" stroke-opacity="0.25" stroke-width="2" fill="none"><path d="M120 560 q30 -8 60 0 t60 0 t60 0"/><path d="M1200 590 q30 -8 60 0 t60 0 t60 0"/></g>
    <!-- cliff + modern house right -->
    <path d="M1180 520 L1640 520 L1640 664 L1180 664 Z" fill="#6E8C76"/>
    <g><rect x="1320" y="430" width="150" height="92" fill="#F4F1E9"/><rect x="1470" y="452" width="90" height="70" fill="#E4DECF"/><path d="M1320 430 L1395 392 L1470 430 Z" fill="#42504A"/><rect x="1346" y="456" width="34" height="40" fill="#3E6678"/><rect x="1396" y="456" width="34" height="40" fill="#3E6678"/><rect x="1488" y="474" width="48" height="40" fill="#3E6678"/></g>
    <rect x="40" y="98" width="1600" height="566" fill="url(#ovl)"/>
    <!-- nav overlaid -->
    <text x="90" y="142" font-family="Cormorant700" font-size="28" fill="#FFFFFF">Coast &amp; County</text>
    <text x="92" y="160" font-family="Manrope600" font-size="9.5" fill="#E8Cf97" letter-spacing="4">ESTATE AGENTS · DEVON</text>
    <text x="1106" y="146" text-anchor="middle" font-family="Manrope600" font-size="14" fill="#FFFFFF">Buy</text>
    <text x="1176" y="146" text-anchor="middle" font-family="Manrope600" font-size="14" fill="#FFFFFF">Sell</text>
    <text x="1244" y="146" text-anchor="middle" font-family="Manrope600" font-size="14" fill="#FFFFFF">Rent</text>
    <text x="1330" y="146" text-anchor="middle" font-family="Manrope600" font-size="14" fill="#FFFFFF">Valuations</text>
    <rect x="1410" y="120" width="178" height="46" rx="23" fill="#B8923E"/><text x="1499" y="148" text-anchor="middle" font-family="Manrope700" font-size="14" fill="#FFFFFF">Book a valuation</text>
    <!-- headline -->
    <text x="90" y="320" font-family="Manrope700" font-size="14" fill="#E8CF97" letter-spacing="3">SALES · LETTINGS · COASTAL PROPERTY</text>
    <text x="88" y="416" font-family="Cormorant700" font-size="74" fill="#FFFFFF">Find your place</text>
    <text x="88" y="488" font-family="Cormorant700" font-size="74" fill="#FFFFFF">on the Devon coast.</text>
  </g>

  <!-- floating SEARCH BAR -->
  <rect x="120" y="596" width="1440" height="104" rx="18" fill="#FFFFFF" filter="url(#soft)"/>
  <text x="160" y="640" font-family="Manrope700" font-size="12" fill="#9a8f72" letter-spacing="1">LOCATION</text>
  <text x="160" y="668" font-family="Manrope500" font-size="16" fill="#2b2a24">Exmouth, Devon</text>
  <line x1="520" y1="624" x2="520" y2="672" stroke="#e3ddcc"/>
  <text x="556" y="640" font-family="Manrope700" font-size="12" fill="#9a8f72" letter-spacing="1">PROPERTY TYPE</text>
  <text x="556" y="668" font-family="Manrope500" font-size="16" fill="#2b2a24">Houses</text>
  <line x1="900" y1="624" x2="900" y2="672" stroke="#e3ddcc"/>
  <text x="936" y="640" font-family="Manrope700" font-size="12" fill="#9a8f72" letter-spacing="1">MAX PRICE</text>
  <text x="936" y="668" font-family="Manrope500" font-size="16" fill="#2b2a24">£750,000</text>
  <rect x="1300" y="620" width="224" height="56" rx="28" fill="#1F3D2F"/><text x="1412" y="655" text-anchor="middle" font-family="Manrope700" font-size="16" fill="#FFFFFF">Search homes</text>

  <!-- listings -->
  <text x="92" y="772" font-family="Cormorant700" font-size="36" fill="#23332b">Featured properties</text>
  <text x="1610" y="770" text-anchor="end" font-family="Manrope600" font-size="15" fill="#B8923E">Browse all listings &#8594;</text>

  <!-- card 1 -->
  <rect x="92" y="800" width="490" height="334" rx="16" fill="#FFFFFF" filter="url(#soft)"/>
  <g clip-path="url(#c1)"><rect x="92" y="800" width="490" height="180" fill="url(#p1)"/><path d="M300 980 L300 900 L360 866 L420 900 L420 980 Z" fill="#FFFFFF" opacity="0.92"/><path d="M300 900 L360 866 L420 900" stroke="#2b3a42" stroke-width="3" fill="none"/></g>
  <rect x="112" y="820" width="120" height="30" rx="15" fill="#1F3D2F"/><text x="172" y="840" text-anchor="middle" font-family="Manrope700" font-size="13" fill="#FFFFFF">FOR SALE</text>
  <text x="116" y="1024" font-family="Manrope800" font-size="26" fill="#23332b">£625,000</text>
  <text x="116" y="1054" font-family="Manrope600" font-size="15" fill="#4a564d">Cliff Road, Exmouth</text>
  <text x="116" y="1084" font-family="Manrope400" font-size="13.5" fill="#7c887f">4 bed · 2 bath · sea views</text>
  <text x="116" y="1114" font-family="Manrope700" font-size="13.5" fill="#B8923E">View details &#8594;</text>

  <!-- card 2 -->
  <rect x="606" y="800" width="490" height="334" rx="16" fill="#FFFFFF" filter="url(#soft)"/>
  <g clip-path="url(#c2)"><rect x="606" y="800" width="490" height="180" fill="url(#p2)"/><path d="M814 980 L814 902 L874 868 L934 902 L934 980 Z" fill="#FFFFFF" opacity="0.92"/><path d="M814 902 L874 868 L934 902" stroke="#5b4a30" stroke-width="3" fill="none"/></g>
  <rect x="626" y="820" width="120" height="30" rx="15" fill="#1F3D2F"/><text x="686" y="840" text-anchor="middle" font-family="Manrope700" font-size="13" fill="#FFFFFF">FOR SALE</text>
  <text x="630" y="1024" font-family="Manrope800" font-size="26" fill="#23332b">£925,000</text>
  <text x="630" y="1054" font-family="Manrope600" font-size="15" fill="#4a564d">The Maltings, Topsham</text>
  <text x="630" y="1084" font-family="Manrope400" font-size="13.5" fill="#7c887f">5 bed · 3 bath · period home</text>
  <text x="630" y="1114" font-family="Manrope700" font-size="13.5" fill="#B8923E">View details &#8594;</text>

  <!-- card 3 -->
  <rect x="1120" y="800" width="490" height="334" rx="16" fill="#FFFFFF" filter="url(#soft)"/>
  <g clip-path="url(#c3)"><rect x="1120" y="800" width="490" height="180" fill="url(#p3)"/><path d="M1328 980 L1328 902 L1388 868 L1448 902 L1448 980 Z" fill="#FFFFFF" opacity="0.92"/><path d="M1328 902 L1388 868 L1448 902" stroke="#3a4a3b" stroke-width="3" fill="none"/></g>
  <rect x="1140" y="820" width="120" height="30" rx="15" fill="#B8923E"/><text x="1200" y="840" text-anchor="middle" font-family="Manrope700" font-size="13" fill="#FFFFFF">NEW</text>
  <text x="1144" y="1024" font-family="Manrope800" font-size="26" fill="#23332b">£480,000</text>
  <text x="1144" y="1054" font-family="Manrope600" font-size="15" fill="#4a564d">Orchard Lane, Budleigh</text>
  <text x="1144" y="1084" font-family="Manrope400" font-size="13.5" fill="#7c887f">3 bed · 2 bath · new build</text>
  <text x="1144" y="1114" font-family="Manrope700" font-size="13.5" fill="#B8923E">View details &#8594;</text>
</g>
</svg>
